<svg width="280" height="280" viewBox="0 0 280 280" fill="none" xmlns="http://www.w3.org/2000/svg">
<g id="Corail Square">
<rect width="280" height="280" fill="white"/>
<g id="Logo-YC-MC">
<g id="Corail">
<path id="Corail_2" fill-rule="evenodd" clip-rule="evenodd" d="M111.038 247.339L128.461 221.188L164.139 201.538L191.881 198.272L204.204 210.75L208.239 206.558L201.579 190.153L213.118 173.794L243.815 168.033L268.881 169.192V160.017L250.94 158.876L253.139 142.325L269 133.327L267.36 126.813L250.957 133.642L239.978 112.979L235.561 115.24L244.376 138.134L241.664 159.162L215.749 163.24L213.511 142.653L207.803 144.004L206.136 165.673L186.19 160.46L183.658 165.929L201.45 174.165L194.307 188.906L165.173 189.373L164.25 173.807L156.878 171.067L152.27 193.952L115.649 216.648C115.649 216.664 119.317 194.832 119.317 194.832L138.534 147.568L157.401 134.197L172.159 145.206L177.652 137.569L164.194 129.132L187.406 114.152L200.759 113.055L216.525 124.044L220.338 120.613L210.516 109.756L216.396 95.1334L211.798 92.6385L202.615 106.516L190.017 106.156L198.312 81.6435L211.608 73.9301L210.777 68.9582L197.613 72.2495L188.261 60.1271L184.792 61.5887L192.1 78.8793L178.81 109.224L136.409 131.887L129.823 115.295L144.294 97.1935L155.847 93.9184L155.715 88.7599L144.294 87.9115L144.872 71.333L161.342 60.0671L158.916 55.2152L141.001 62.3186L134.941 54.0586L138.32 42.5283L167.556 26.378L186.19 29.8981L187.175 24.5093L171.499 19.5341L174.047 1.55728L169.116 1.07549L161.961 22.4232L142.646 30.5729L135.71 17.2679L130.953 20.6031L133.408 34.8327L126.182 48.5076L106.474 44.5933L96.8908 30.0522L108.797 17.0684L103.671 12.8297L91.3517 23.8393L75.5595 0L69.0028 3.55903L77.5784 17.8389L63.8557 19.6184V24.9521C63.8557 24.9521 84.4994 27.8704 84.4912 27.8704L98.2759 49.6382L91.5069 58.9754L94.8114 62.7972L108.818 53.3351L127.208 58.7029L136.362 71.3492L134.941 93.3766L124.519 107.616L114.468 104.175L114.45 91.7528L109.088 91.3521L106.611 102.913L87.9901 97.3055L88.0358 76.8727L82.2746 75.5377L80.2818 92.1632L61.0642 95.5616L61.025 101.992L76.662 101.569L118.449 116.314L128.173 141.229C128.173 141.229 124.547 158.886 124.563 158.902L113.405 181.214L97.4135 166.316L101.484 146.129L112.549 137.49L110.625 131.958L97.6879 137.131L85.602 122.483L81.1834 127.395L92.3089 140.27L90.9907 163.436L69.5696 153.87L72.1962 135.058L65.4957 133.976L58.9439 152.174L40.5447 151.53L37.2369 135.924L45.4565 121.948L41.7861 119.098L32.3088 128.587L17.5031 121.993L14.9631 125.87L26.7861 136.275L30.7145 150.759L12 155.309L17.655 160.795L62.1978 161.337L89.6938 173.899L108.003 190.581L82.7124 188.388L61.5607 184.518L61.533 192.142L77.3252 198.065L71.4039 221.743L77.7695 222.347L88.6647 196.462L105.254 205.872L93.9604 252.188L52.1553 272.369L56.4251 280L112.396 260.745L155.734 252.141C155.734 252.141 188.278 267.618 188.278 267.631L190.455 262.2L169.781 247.657C169.781 247.657 182.438 236.159 182.43 236.112C182.412 236.077 179.359 230.824 179.359 230.824C179.505 230.743 159.209 241.501 159.209 241.485L111.038 247.339Z" fill="#DC3E2A"/>
</g>
</g>
</g>
</svg>
